<?xml version="1.0" encoding="utf-8"?>
<!-- Generator: Adobe Illustrator 16.0.0, SVG Export Plug-In . SVG Version: 6.00 Build 0)  -->
<!DOCTYPE svg PUBLIC "-//W3C//DTD SVG 1.1//EN" "http://www.w3.org/Graphics/SVG/1.1/DTD/svg11.dtd">
<svg version="1.1" id="Layer_1" xmlns="http://www.w3.org/2000/svg" xmlns:xlink="http://www.w3.org/1999/xlink" x="0px" y="0px"
	 width="250px" height="50px" viewBox="0 0 250 50" enable-background="new 0 0 250 50" xml:space="preserve">
<path fill="#DC2927" d="M70,39.567v-9.136h-4.948c-0.342-2.263-0.92-4.447-1.737-6.508l4.272-2.467l-4.555-7.915l-4.271,2.461
	c-1.42-1.752-3.011-3.356-4.779-4.759l2.46-4.27l-7.902-4.572L46.08,6.67c-2.076-0.796-4.26-1.379-6.519-1.72V0h-9.133v4.95
	c-2.259,0.341-4.442,0.924-6.519,1.72l-2.461-4.268l-7.902,4.572l2.46,4.27c-1.763,1.402-3.354,3.006-4.777,4.759l-4.258-2.461
	l-4.57,7.915l4.273,2.467c-0.817,2.062-1.395,4.245-1.737,6.508H0v9.136h4.937c0.342,2.265,0.92,4.44,1.737,6.513l-4.273,2.463
	l4.57,7.913l4.258-2.459c1.423,1.76,3.023,3.351,4.777,4.779l-2.46,4.252l7.902,4.573l2.461-4.286V34.581l-9.959-3.265l2.013-6.192
	l14.464,4.718v0.001h0v35.222V70h9.133v-4.935V29.843h0v-0.001l14.479-4.718l2.014,6.192l-9.974,3.265v28.734l2.461,4.286
	l7.902-4.573l-2.461-4.252c1.769-1.429,3.36-3.02,4.78-4.779l4.271,2.459l4.555-7.913l-4.272-2.463
	c0.817-2.072,1.395-4.248,1.737-6.513H70z M35.003,27.247c-4.205,0-7.613-3.399-7.613-7.602c0-4.203,3.409-7.616,7.613-7.616
	c4.203,0,7.596,3.413,7.596,7.616C42.599,23.848,39.206,27.247,35.003,27.247z"/>
<g>
	<g>
		<path fill="#FFFFFF" d="M137.187,59.303V43h1.744v4.373h3.86c2.326,0,3.488,1.247,3.488,3.744v4.441
			c0,2.496-1.162,3.744-3.488,3.744H137.187z M144.535,51.187c0-1.333-0.604-2-1.813-2h-3.791v8.326h3.791
			c1.209,0,1.813-0.667,1.813-2V51.187z M148.559,45.016V43h1.768v2.016H148.559z M148.559,59.303v-11.93h1.768v11.93H148.559z
			 M160.441,59.303V51.14c0-1.302-0.465-1.953-1.396-1.953h-2.953c-0.604,0-1.027,0.155-1.268,0.465
			c-0.24,0.311-0.36,0.813-0.36,1.512v8.14h-1.744v-11.93h1.674v1.465c0.218-0.543,0.516-0.923,0.896-1.14
			c0.38-0.218,0.903-0.325,1.569-0.325h2.629c1.783,0,2.675,1.217,2.675,3.65v8.279H160.441z M167,59.303
			c-0.977,0-1.694-0.236-2.151-0.709s-0.686-1.175-0.686-2.104v-1.745c0-1.768,0.945-2.65,2.837-2.65h4.628v-0.907
			c0-1.333-0.597-2-1.79-2h-5.001v-1.813h5.001c2.325,0,3.488,1.247,3.488,3.744v8.186H167z M171.628,53.628h-4.488
			c-0.899,0-1.35,0.474-1.35,1.419v1.21c0,0.914,0.45,1.371,1.35,1.371h4.488V53.628z M175.534,59.303v-11.93h1.675v1.465
			c0.217-0.543,0.516-0.923,0.896-1.14c0.379-0.218,0.903-0.325,1.569-0.325h2.442v1.813h-3.209c-0.605,0-1.027,0.155-1.269,0.465
			c-0.24,0.311-0.36,0.813-0.36,1.512v8.14H175.534z M185.953,63v-1.651h3.372c1.146,0,1.721-0.705,1.721-2.115v-0.977h-3.721
			c-2.326,0-3.488-1.218-3.488-3.651v-7.232h1.744v7.302c0,1.302,0.604,1.953,1.813,1.953h3.651v-9.255h1.768v11.79
			c0,2.559-1.108,3.837-3.325,3.837H185.953z"/>
		<polygon fill="#EB2127" points="143.429,66 143.429,64 130.429,64 130.429,51 128.429,51 128.429,66 		"/>
		<polygon fill="#58B947" points="186.571,40 186.571,42 199.571,42 199.571,55 201.571,55 201.571,40 		"/>
	</g>
	<path fill="#FFFFFF" d="M80,7.504V4h3.403v3.504H80z M80,36V12.473h3.403V36H80z M101.871,36V19.901
		c0-2.564-0.904-3.854-2.691-3.854h-5.694c-1.168,0-1.985,0.309-2.452,0.925c-0.464,0.605-0.688,1.607-0.688,2.976V36H86.98V12.473
		h3.231v2.896c0.42-1.077,0.99-1.819,1.728-2.249c0.729-0.433,1.74-0.647,3.024-0.647h5.066c3.441,0,5.154,2.398,5.154,7.206V36
		H101.871z M109.354,36v-3.535h11.568c1.893,0,2.832-0.886,2.832-2.697v-1.654c0-0.854-0.256-1.503-0.766-1.945
		c-0.504-0.444-1.199-0.666-2.066-0.666h-5.828c-1.998,0-3.547-0.402-4.638-1.193c-1.09-0.792-1.64-2.23-1.64-4.313v-1.053
		c0-1.251,0.137-2.297,0.412-3.117c0.261-0.83,0.672-1.49,1.228-2.002c0.556-0.497,1.257-0.853,2.105-1.058
		c0.854-0.193,1.865-0.294,3.025-0.294h10.32v3.575h-11.213c-1.799,0-2.691,0.951-2.691,2.848v0.736
		c0,0.916,0.256,1.654,0.768,2.201c0.5,0.553,1.283,0.821,2.324,0.821h5.969c1.824,0,3.262,0.386,4.332,1.147
		c1.057,0.768,1.59,2.111,1.59,4.033v1.513c0,2.238-0.463,3.913-1.375,5.008C124.697,35.464,123.17,36,121.016,36H109.354z
		 M137.156,36c-4.268,0-6.412-2.498-6.412-7.518V4h3.412v8.473h5.777v3.024h-5.777V28.62c0,2.745,1.104,4.122,3.32,4.122h2.383V36
		H137.156z M148.547,36c-1.881,0-3.271-0.467-4.139-1.396c-0.889-0.938-1.336-2.303-1.336-4.156v-3.434
		c0-3.48,1.826-5.226,5.475-5.226h8.932v-1.792c0-2.634-1.162-3.948-3.459-3.948h-9.645v-3.575h9.645c4.494,0,6.74,2.467,6.74,7.382
		V36H148.547z M157.479,24.813h-8.664c-1.732,0-2.605,0.935-2.605,2.8v2.392c0,1.787,0.873,2.69,2.605,2.69h8.664V24.813z
		 M163.822,36V10.597c0-4.498,2.01-6.597,6.021-6.597h3.094v3.014h-3.002c-1.902,0-2.836,1.076-2.836,3.211v2.248h6.141v3.024
		h-6.006V36H163.822z M181.893,36c-1.498,0-2.719-0.143-3.691-0.396c-0.945-0.283-1.703-0.742-2.27-1.343
		c-0.58-0.613-0.967-1.431-1.166-2.462c-0.219-1.019-0.324-2.271-0.324-3.777v-7.568c0-1.558,0.133-2.856,0.371-3.901
		c0.232-1.035,0.629-1.852,1.229-2.452c0.574-0.595,1.354-1.01,2.297-1.265c0.975-0.24,2.148-0.363,3.555-0.363h3.227
		c1.465,0,2.678,0.142,3.654,0.411c0.977,0.282,1.732,0.737,2.291,1.361c0.541,0.625,0.941,1.44,1.15,2.447
		c0.225,1.01,0.355,2.269,0.355,3.763v7.568c0,2.695-0.457,4.703-1.32,6.012c-0.883,1.302-2.506,1.966-4.82,1.966H181.893z
		 M189.199,19.854c0-1.219-0.232-2.161-0.664-2.81c-0.457-0.664-1.207-0.997-2.246-0.997h-5.615c-1.916,0-2.861,1.092-2.861,3.259
		v9.359c0,1.196,0.207,2.115,0.654,2.794c0.424,0.663,1.172,1.005,2.207,1.005h5.615c1.934,0,2.91-1.068,2.91-3.255V19.854z
		 M195.684,36V12.473h3.229v2.896c0.42-1.077,1.004-1.819,1.73-2.249c0.738-0.433,1.738-0.647,3.031-0.647h4.693v3.575h-6.186
		c-1.162,0-1.973,0.309-2.438,0.925c-0.463,0.605-0.699,1.607-0.699,2.976V36H195.684z M217.744,36
		c-4.471,0-6.715-2.456-6.715-7.388v-8.784c0-4.934,2.244-7.403,6.715-7.403h4.082c4.521,0,6.777,2.469,6.777,7.417v5.836h-14.297
		v2.85c0,2.632,1.135,3.937,3.438,3.937h10.242V36H217.744z M225.371,19.763c0-2.623-1.166-3.937-3.48-3.937h-4.146
		c-2.303,0-3.438,1.313-3.438,3.937v2.891h11.064V19.763z M245.828,35.854l-5.697-9.538l-5.871,9.538h-3.645l7.861-11.928
		l-7.129-11.604h3.895l5.557,9.26l5.742-9.26H250l-7.58,11.604l7.441,11.928H245.828z"/>
</g>
</svg>
