<?xml version="1.0" standalone="no"?>
<!DOCTYPE svg PUBLIC "-//W3C//DTD SVG 1.1//EN" "http://www.w3.org/Graphics/SVG/1.1/DTD/svg11.dtd">
<svg xmlns="http://www.w3.org/2000/svg">
<metadata>Generated by Fontastic.me</metadata>
<defs>
<font id="stweb-fonticon" horiz-adv-x="512">
<font-face font-family="stweb-fonticon" units-per-em="512" ascent="480" descent="-32"/>
<missing-glyph horiz-adv-x="512" />

<glyph glyph-name="earningcalendar" unicode="&#97;" d="M464 448l-32 0 0 24c0 22-18 40-40 40-22 0-40-18-40-40l0-24-192 0 0 24c0 22-18 40-40 40-22 0-40-18-40-40l0-24-32 0c-27 0-48-21-48-48l0-352c0-27 21-48 48-48l416 0c27 0 48 21 48 48l0 352c0 27-21 48-48 48z m-16-384l-384 0 0 272 384 0z m-336 176l0 32c0 9 7 16 16 16l32 0c9 0 16-7 16-16l0-32c0-9-7-16-16-16l-32 0c-9 0-16 7-16 16z m112 0l0 32c0 9 7 16 16 16l32 0c9 0 16-7 16-16l0-32c0-9-7-16-16-16l-32 0c-9 0-16 7-16 16z m112 0l0 32c0 9 7 16 16 16l32 0c9 0 16-7 16-16l0-32c0-9-7-16-16-16l-32 0c-9 0-16 7-16 16z m-224-112l0 32c0 9 7 16 16 16l32 0c9 0 16-7 16-16l0-32c0-9-7-16-16-16l-32 0c-9 0-16 7-16 16z m112 0l0 32c0 9 7 16 16 16l32 0c9 0 16-7 16-16l0-32c0-9-7-16-16-16l-32 0c-9 0-16 7-16 16z"/>
<glyph glyph-name="fullscreen" unicode="&#98;" d="M164 301l-69 70-36-36c-11-11-23-8-26 7l-32 147c-4 15 6 25 21 22l148-32c15-3 18-14 7-25l-37-38 68-69c-19-10-35-26-44-46z m184 1l69 69 36-35c11-11 23-8 26 7l32 147c4 15-6 25-21 21l-148-31c-15-3-18-15-7-26l37-37-68-69c19-10 35-26 44-46z m-184-91l-69-70-36 36c-11 11-23 8-26-7l-32-147c-4-15 6-25 21-22l148 32c15 3 18 14 7 25l-37 38 68 69c-19 10-35 26-44 46z m140-47l68-69-37-37c-11-11-8-23 7-26l148-31c15-4 25 6 21 21l-32 147c-3 15-15 18-26 7l-36-35-69 69c-9-20-25-36-44-46z m-104 93c0-31 25-56 56-56 31 0 57 25 57 56 0 31-26 56-57 56-31 0-56-25-56-56z"/>
<glyph glyph-name="help" unicode="&#99;" d="M54 186l30-10 0-73c0-19 15-35 34-35l75 0 16-54c2-10 13-16 23-13 0 0 0 0 0 0l200 57c10 3 16 13 13 24l-29 103c74 77 71 199-5 273-77 74-199 72-273-5-35-36-55-85-54-135 0-13-3-26-8-38l-32-71c-4-9 0-19 8-22 1-1 1-1 2-1z m224-5c-11 0-21 9-21 21 0 11 10 21 21 21 12 0 21-10 21-21 0-12-9-21-21-21z m-64 202c12 24 37 40 64 40l0 0c38 0 70-30 71-69 1-31-18-59-48-69-1 0-2-1-2-2l0-16c0-12-9-21-21-21-11 0-21 9-21 21l0 16c0 19 13 36 30 41 13 5 21 16 20 29-1 16-13 28-29 28-11 0-21-6-26-16-6-10-19-14-29-8-9 5-13 16-9 26z"/>
<glyph glyph-name="leaderboard" unicode="&#100;" d="M357 458c0 30 25 54 56 54 30 0 55-24 55-54 0-30-25-54-55-54-31 0-56 24-56 54z m-258-54c31 0 56 24 56 54 0 30-25 54-56 54-30 0-55-24-55-54 0-30 25-54 55-54z m361-19l-22-53c-1-1-2-1-4-1 0 0-1 1-1 1l-10 26c4 4 6 9 5 15-2 8-11 13-19 11-7-2-12-7-12-14 0-5 2-9 6-12l-10-25 0-96c0-27-15-52-39-66l-1-17 9-130c0-13 12-24 26-24l49 0c15 0 26 11 27 24l11 172c21 3 37 20 37 41l0 111c0 22-19 41-42 41l-5 0c-2 0-4-2-5-4z m-204 19c31 0 56 24 56 54 0 30-25 54-56 54-31 0-55-24-55-54 0-30 24-54 55-54z m-219-208l11-172c1-13 12-24 27-24l49 0c14 0 26 11 26 24l9 130-1 17c-24 13-39 39-39 66l0 97-10 24c5 4 7 9 6 15-2 8-11 13-20 11-6-2-11-7-12-14 0-5 3-9 6-12l-10-25c-1-2-2-2-3-2-1 0-1 1-2 2l-22 52c-1 2-3 4-5 4l-5 0c-23 0-42-19-42-41l0-111c0-21 16-38 37-41z m157 0l11-172c1-13 12-24 26-24l50 0c14 0 25 11 26 24l11 172c21 3 37 20 37 41l0 111c0 22-18 41-42 41l-4 0c-3 0-5-2-6-4l-22-53c-1-1-2-1-3-1-1 0-1 1-2 1l-10 26c4 4 7 9 6 15-1 6-7 11-13 12-1 0-2 0-3 0-9 0-16-7-16-16 1-4 3-8 6-11l-10-25c-1-2-2-2-4-2 0 0-1 1-1 2l-22 52c-1 2-3 4-5 4l-5 0c-23 0-42-19-42-41l0-111c0-21 16-38 37-41z"/>
<glyph glyph-name="marketnews" unicode="&#101;" d="M448 512l-256 0c-35 0-64-29-64-64l0-352c0-18-14-32-32-32-18 0-32 14-32 32l0 192c0 18-14 32-32 32-18 0-32-14-32-32l0-192c0-53 43-96 96-96l336 0c44 0 80 36 80 80l0 368c0 35-29 64-64 64z m-88-416l-152 0 0 48 152 0z m72 96l-224 0 0 48 224 0z m-72 96l-152 0 0 48 152 0z m72 96l-224 0 0 48 224 0z"/>
<glyph glyph-name="menu" unicode="&#102;" d="M512 51c0-28-23-51-51-51l-410 0c-28 0-51 23-51 51 0 28 23 51 51 51l410 0c28 0 51-23 51-51z m0 205c0 28-23 51-51 51l-410 0c-28 0-51-23-51-51 0-28 23-51 51-51l410 0c28 0 51 23 51 51z m0 205c0 28-23 51-51 51l-410 0c-28 0-51-23-51-51 0-28 23-51 51-51l410 0c28 0 51 23 51 51z"/>
<glyph glyph-name="openoption" unicode="&#103;" d="M464 490l-396 0c-26 0-47-22-47-48l0-236c15 17 33 32 52 44l0 114 386 0 0-268-164 0-67-53 236 0c27 0 48 21 48 47l0 352c0 26-21 48-48 48z m-372-88c-11 0-20 9-20 20 0 11 9 20 20 20 11 0 19-9 19-20 0-11-8-19-19-20z m59 0c-11 1-20 9-20 20 0 11 9 20 20 20 11 0 20-9 20-20 0-11-9-19-20-20z m59 0c-11 0-20 9-20 20 0 11 9 20 20 20 11 0 20-9 20-20 0-11-9-19-20-20z m-38-310l0 44c-65-2-107-56-131-102-4-7-11-12-19-12-2 0-5 1-7 2-10 3-16 12-15 23 22 172 153 190 172 192l0 44c0 7 4 13 10 16 6 3 13 2 19-2l122-96c8-6 9-17 3-25-1-1-2-2-3-3l-123-95c-7-6-19-5-25 3-2 3-3 7-3 11l0 0z"/>
<glyph glyph-name="publicchats" unicode="&#104;" d="M128 214c3-20 2-40-4-59-2-6 2-13 8-15 3-1 6-1 9 1 25 12 60 35 79 71l25 0c83 0 150 67 150 150 0 0 0 0 0 0 0 83-67 150-150 150l-95 0c-83 0-150-67-150-150 0-74 55-137 128-148z m130 170c12 0 22-10 22-22 0-12-10-22-22-22-12 0-22 10-22 22 0 12 10 22 22 22z m-60 0c12 0 21-10 21-22 0-12-9-22-21-22-12 0-22 10-22 22 0 12 10 22 22 22z m-61 0c12 0 22-10 22-22 0-12-10-22-22-22-12 0-22 10-22 22 0 12 10 22 22 22z m375-194c0-61-41-114-100-130 0-8 1-17 3-25 5-14-4-30-18-34-7-2-14-1-20 2-20 10-46 27-63 53l-9 0c-37 0-73 16-98 43-6 8-4 19 5 25 6 5 15 4 22-1 18-20 44-31 71-31l19 0c7 0 13-4 16-10 9-15 21-28 37-37-2 11-1 22 0 33 1 8 8 14 16 15 53 8 90 57 82 110-4 30-22 57-49 72-9 4-12 16-7 24 5 9 16 12 25 7 42-23 68-68 68-116z"/>
<glyph glyph-name="settings" unicode="&#105;" d="M320 256c0-35-29-64-64-64-35 0-64 29-64 64 0 36 29 64 64 64 35 0 64-28 64-64z m192 16l0-32c0-17-14-32-32-32l-38 0c-5-17-12-34-21-49l27-27c13-13 13-33 0-46 0 0 0 0 0 0l-22-22c-13-13-33-13-45 0l0 0-28 27c-15-9-32-16-49-20l0-39c0-17-14-32-32-32l-32 0c-18 0-32 15-32 32l0 39c-17 4-34 11-49 20l-27-27c-13-13-33-13-46 0l0 0-22 22c-13 13-13 33 0 46 0 0 0 0 0 0l27 27c-9 15-16 32-21 49l-38 0c-18 0-32 15-32 32l0 32c0 18 14 32 32 32l38 0c5 18 12 34 21 50l-27 27c-13 12-13 32 0 45 0 0 0 0 0 0l22 23c13 12 33 12 45 0l0 0 28-27c15 9 32 15 49 20l0 38c0 18 14 32 32 32l32 0c18 0 32-14 32-32l0-38c17-5 34-11 49-20l27 27c13 12 33 12 46 0l0 0 22-23c13-12 13-33 0-45 0 0 0 0 0 0l-27-27c9-16 16-32 21-50l38 0c18 0 32-14 32-32z m-133-16c0 68-55 123-123 123-68 0-123-55-123-123 0-68 55-122 123-122 68 0 123 54 123 122z"/>
<glyph glyph-name="tournaments" unicode="&#106;" d="M42 44c2 3 2 8 0 11l-20 29c-3 4-2 10 2 13 2 1 4 2 6 2l74 0 0-99-74 0c-5 0-10 4-10 10 0 2 1 4 2 5z m448 40c3 4 2 10-2 13-2 1-4 2-6 2l-74 0 0-99 74 0c5 0 10 4 10 10 0 2-1 4-2 5l-20 29c-2 3-2 8 0 11z m22 401l0-81c0-60-48-109-106-109l-6 0c-15-50-55-89-105-103l0-42 27 0c13 0 24-11 24-24 0 0 0 0 0 0l0-27 9 0c13 0 23-11 23-25l0-50c0-13-10-24-23-24l-198 0c-13 0-23 11-23 24l0 51c0 13 10 24 23 24l9 0 0 27c0 13 11 24 24 24l27 0 0 43c-50 13-90 52-105 102l-6 0c-58 0-106 49-106 109l0 81c0 15 12 27 27 27l458 0c15 0 27-12 27-27z m-407-28l-51 0 0-53c0-29 22-53 51-54z m226-74c-1 4-5 7-9 8l-39 6-16 35c-3 6-10 8-16 5-2-1-4-3-5-5l-17-35-39-6c-6-1-10-7-9-13 0-3 1-5 3-7l28-27-7-39c-1-7 3-13 9-14 3 0 6 0 8 1l34 18 34-18c4-2 9-2 12 1 4 2 6 7 5 12l-7 39 28 27c3 3 4 8 3 12z m127 74l-51 0 0-107c28 1 51 25 51 54z"/>
<glyph glyph-name="tradinghistory" unicode="&#107;" d="M137 261c0-8-7-15-15-15l-21 0c-8 0-15 7-15 15l0 21c0 8 7 15 15 15l21 0c8 0 15-7 15-15z m82 21c0 8-7 15-15 15l-21 0c-8 0-15-7-15-15l0-21c0-8 7-15 15-15l21 0c8 0 15 7 15 15z m46-36l21 0c8 0 15 6 15 14l0 22c0 8-7 14-15 14l-21 0c-8 0-15-6-15-14l0-22c0-8 7-14 15-14z m-143-34l-21 0c-8 0-15-6-15-14 0-1 0-1 0-1l0-21c0-8 7-15 15-15l21 0c8 0 15 7 15 15 0 0 0 0 0 0l0 21c0 8-7 15-15 15 0 0 0 0 0 0z m82 0l-21 0c-8 0-15-6-15-14 0-1 0-1 0-1l0-21c0-8 7-15 15-15l21 0c8 0 15 7 15 15l0 21c0 8-7 15-15 15z m-158-140l200 0c-6 17-9 34-9 51l-186 0 0 212 361 0 0-57c18-2 35-7 51-15l0 145c0 26-20 46-46 46l-49 0 0 35c0 10-8 18-18 18l-28 0c-11 0-19-8-19-18l0-35-143 0 0 35c0 10-8 18-18 18l-29 0c-10 0-18-8-18-18l0-35-49 0c-25 0-46-20-46-46l0-290c0-25 21-46 46-46z m466 51c0-65-53-118-119-118-65 0-118 53-118 118 0 66 53 119 118 119 66 0 119-53 119-119z m-67-32c0 5-2 9-5 13l-27 27 0 43c0 10-9 19-19 19-11 0-19-9-19-19l0-59 38-38c8-7 20-7 27 0 3 4 5 9 5 14z"/>
<glyph glyph-name="user" unicode="&#108;" d="M480 321c-6 103-90 186-192 191-112 5-204-81-212-189l0-6c0-18-7-47-15-63-9-17-18-34-26-46-8-12 1-27 14-27l27 0 0-98c0-20 16-35 35-35l56 0 0-30c0-10 8-18 18-18l227 0c11 0 19 8 19 18l0 159c33 38 52 89 49 144z m-331-54c-14 0-26 12-26 26 0 14 12 25 26 25 14 0 25-11 25-25 0-14-11-26-25-26z"/>
<glyph glyph-name="optionchart-up" unicode="&#109;" d="M125 231l0-156 38 0 0 196 35 25 18-25c6-8 13-15 22-20l0-176 36 0 0 166c15 0 29 5 41 14l34 24 0-204 39 0 0 231 30 22c9-7 20-12 31-14 3-1 7-1 10-1l4 0 0-238 21 0c11 0 19-8 19-18l0-16c0-10-8-18-19-18l-456 0c-10 0-19 8-19 18l0 16c0 10 9 18 19 18l21 0 0 120c8 2 15 6 22 11l52 37c1-4 2-8 2-12z m-101 4c8-2 16 0 22 5l162 115 42-59c9-14 28-17 41-7l135 96 15-20c3-5 9-9 15-10 1 0 2 0 3 0 10 0 18 6 21 15l31 90c4 11-2 24-14 28-1 0-3 1-4 1-1 0-2 0-3 0l-95 0c-10 0-19-7-22-17-1-6 0-13 4-19l15-20-111-79-43 59c-9 13-27 16-41 7l0 0-185-133c-13-9-16-28-6-41 4-6 11-10 18-11z"/>
<glyph glyph-name="optionchart-down" unicode="&#110;" d="M512 58l0-16c0-11-9-19-19-19l-474 0c-10 0-19 8-19 19l0 16c0 10 9 19 19 19l18 0 0 293 83-82 0-211 32 0 0 178 45-45c10-10 23-16 37-18l0-115 32 0 0 119c8 4 15 8 21 14l39 39 21-22c-21-24-13-47-9-57 3-6 6-11 11-15l0-78 32 0 0 62c3-1 6-1 8-1 25-1 50-2 75-3l0-58 29 0c10 0 19-8 19-19z m-288 179c5-5 11-8 18-8 7 0 14 3 19 8l65 66 75-75c-5-6-10-10-16-16l-7-8c-3-2-9-9-5-19 1-1 2-3 3-4 5-5 10-5 14-5 30-2 59-3 89-5 1 0 1 0 2 0 6 0 10 2 13 5 4 4 6 9 5 15l-1 29c-1 20-2 39-3 58 0 5-1 11-5 15-2 1-3 2-5 3-2 2-5 2-7 2-6 0-10-3-13-6l-6-7c-5-5-11-10-16-15 0 0-1-1-1-2l-98 99c-5 5-11 8-18 8-7 0-14-3-19-8l-65-65-180 180c-5 5-11 7-18 7-7 0-14-2-19-7l-5-5c-10-10-10-27 0-37z"/>
<glyph glyph-name="amount" unicode="&#111;" d="M284 505l0-33c18-3 33-12 45-25 11-13 17-28 18-47 0-5-4-9-8-9l-44 0c-4 0-8 3-8 7-1 10-3 16-8 22-5 6-11 9-20 9-8 0-14-2-19-8-4-5-6-12-6-20 0-8 2-14 6-20 5-5 13-10 25-16 28-11 48-23 61-35 13-11 19-28 19-51 0-20-6-37-19-50-11-10-26-18-43-21l0-30c0-4-4-7-8-7l-26 0c-4 0-7 3-7 7l0 30c-23 2-41 10-56 24-14 12-21 30-22 52 0 5 4 9 8 9l43 0c4 0 8-3 9-7 1-11 4-19 9-24 6-7 15-10 25-10 9 0 16 2 20 7 4 5 7 12 7 19 0 10-2 17-7 23-5 5-13 10-24 15-29 11-49 23-62 34-13 12-20 29-20 51 0 20 7 37 21 50 12 12 28 19 49 22l0 32c0 4 3 7 7 7l26 0c6 0 9-3 9-7z m215-399l-144-85-5-2c-19-10-39-13-61-10l-190 8c-4-8-11-13-20-14l-44-3c-14-1-26 10-28 24l-6 95c-1 14 10 26 24 27l43 3c9 1 17-4 22-11 19 9 56 26 121 7 6-2 17-4 24-4l101-1c13 1 25-9 26-22 1-13-8-25-21-26l-113-11c-4 0-7-3-6-7 1-3 4-6 7-5l4 0c0 0 77 1 129 12 9 2 18 5 26 10 1 1 3 2 4 3 18 13 46 28 65 38 5 3 26 14 35 13 14-1 20-12 19-22 0-6-4-13-12-17z m-433-70c0 8-6 15-14 15-9 0-15-7-15-15 0-7 7-14 15-14 8 0 14 7 14 14z m324 80c15 11 45 27 62 35 5 3 10 6 16 8-7 5-15 5-24 2-16-6-45-21-61-29l0-1c1-3 2-6 2-10 1-2 0-5 0-8 2 1 4 2 5 3z m16 56c-10-4-32-11-42-16 4-3 8-6 11-10 0 1 1 1 2 2l7 4c11 6 34 14 46 19-8 4-16 4-24 1z"/>
<glyph glyph-name="profit" unicode="&#112;" d="M0 149l0 215c0 23 19 41 42 41l397 0c23 0 42-18 42-41l0-13-28 0c-14 0-26-12-26-26l0-7c-19 4-34 21-34 41 0 4 0 8 1 11l-309 0c0-3 0-5 0-8 0-23-18-43-42-43-2 0-5 0-7 1l0-128c2 1 5 1 7 1 23 0 42-19 42-43 0-2 0-5 0-8l259 0 0-31c0-1 0-3 0-4l-303 0c-23 0-41 19-41 42z m508-17l-55 0c-3 0-5-2-5-4l0-17c0-2 2-4 5-4l55 0c2 0 4 2 4 4l0 17c0 2-2 4-4 4z m0 33l-55 0c-3 0-5-2-5-4l0-17c0-2 2-4 5-4l55 0c2 0 4 2 4 4l0 17c0 2-2 4-4 4z m0 33l-55 0c-3 0-5-2-5-5l0-15c0-3 2-5 5-5l55 0c2 0 4 2 4 5l0 16c0 2-2 4-4 4z m0 32l-55 0c-3 0-5-2-5-4l0-16c0-3 2-5 5-5l55 0c2 0 4 2 4 5l0 16c0 2-2 4-4 4z m0 33l-55 0c-3 0-5-2-5-4l0-17c0-2 2-4 5-4l55 0c2 0 4 2 4 4l0 17c0 2-2 4-4 4z m0 33l-55 0c-3 0-5-2-5-4l0-16c0-3 2-5 5-5l55 0c2 0 4 2 4 5l0 16c0 2-2 4-4 4z m0 33l-55 0c-3 0-5-2-5-4l0-17c0-2 2-4 5-4l55 0c2 0 4 2 4 4l0 17c0 2-2 4-4 4z m-84-197l-56 0c-2 0-4-2-4-4l0-17c0-2 2-4 4-4l56 0c2 0 4 2 4 4l0 17c0 2-2 4-4 4z m4 29c0 2-2 4-4 4l-56 0c-2 0-4-2-4-4l0-17c0-2 2-4 4-4l56 0c2 0 4 2 4 4z m0 32c0 3-2 5-4 5l-56 0c-2 0-4-2-4-5l0-15c0-3 2-5 4-5l56 0c2 0 4 2 4 5z m0 34c0 2-2 4-4 4l-56 0c-2 0-4-2-4-4l0-17c0-2 2-4 4-4l56 0c2 0 4 2 4 4z m0 32c0 3-2 5-4 5l-56 0c-2 0-4-2-4-5l0-16c0-2 2-4 4-4l56 0c2 0 4 2 4 4z m-188 89c50 0 91-41 91-92 0-50-41-91-91-91-50 0-91 41-91 91 0 51 41 92 91 92z m-59-59l18 0c3 12 9 22 14 30-14-6-25-17-32-30z m14-52c-1 6-2 12-2 19 0 8 1 14 2 20l-21 0c-1-6-3-13-3-20 0-6 2-13 3-19z m18-43c-5 8-11 17-14 30l-18 0c7-14 18-24 32-30z m20 30l-20 0c6-16 14-26 20-33z m0 52l-24 0c-1-6-2-12-2-20 0-6 1-13 2-19l24 0z m0 45c-6-7-15-17-20-32l20 0z m66-97l-18 0c-3-13-9-22-14-30 14 6 25 16 32 30z m-14 52c1-6 2-12 2-20 0-7-1-13-2-19l20 0c2 6 3 13 3 19 0 7-1 14-3 20z m-18 43c6-8 11-18 15-30l18 0c-8 13-19 24-33 30z m-20-30l20 0c-6 15-14 25-20 32z m0-52l24 0c1 6 2 12 2 19 0 7-1 14-2 20l-24 0z m0-46c6 7 15 17 20 33l-20 0z m-165 65c0-14 11-25 25-25 14 0 26 11 26 25 0 14-12 26-26 26-14 0-25-12-25-26z"/>
<glyph glyph-name="trade-call" unicode="&#113;" d="M512 25c0-14-11-25-25-25l-462 0c-14 0-25 11-25 25l0 22c0 14 11 25 25 25l462 0c14 0 25-11 25-25z m-196 286l-48 90c-7 12-17 12-24 0l-48-90c-6-12-1-22 13-22l11 0 0-152c0-13 11-24 25-24l22 0c14 0 25 11 25 24l0 152 11 0c14 0 19 10 13 22z m-186-124l-11 0 0-50c0-13-11-24-25-24l-22 0c-14 0-25 11-25 24l0 50-11 0c-14 0-19 10-13 21l48 90c7 12 17 12 24 0l48-90c7-11 1-21-13-21z m346 205l-11 0 0-255c0-13-11-24-25-24l-22 0c-14 0-25 11-25 24l0 255-11 0c-14 0-20 9-13 21l48 90c7 12 17 12 24 0l48-90c6-12 1-21-13-21z"/>
<glyph glyph-name="trade-put" unicode="&#114;" d="M512 465c0-14-11-25-25-25l-462 0c-14 0-25 11-25 25l0 22c0 14 11 25 25 25l462 0c14 0 25-11 25-25z m-209-242l-11 0 0 152c0 13-11 24-25 24l-22 0c-14 0-25-11-25-24l0-152-11 0c-14 0-19-10-13-22l48-90c7-12 17-12 24 0l48 90c6 12 1 22-13 22z m-160 81l-48-90c-7-12-17-12-24 0l-48 90c-6 11-1 21 13 21l11 0 0 50c0 13 11 24 25 24l22 0c14 0 25-11 25-24l0-50 11 0c14 0 20-10 13-21z m346-205l-48-90c-7-12-17-12-24 0l-48 90c-7 12-1 21 13 21l11 0 0 255c0 13 11 24 25 24l22 0c14 0 25-11 25-24l0-255 11 0c14 0 19-9 13-21z"/>
<glyph glyph-name="chartgrid-1" unicode="&#115;" d="M512 82c0-45-37-82-82-82l-348 0c-45 0-82 37-82 82l0 348c0 45 37 82 82 82l348 0c45 0 82-37 82-82z"/>
<glyph glyph-name="chartgrid-2-1" unicode="&#116;" d="M471 236c23 0 41-19 41-41l0-154c0-23-18-41-41-41l-430 0c-23 0-41 18-41 41l0 154c0 22 18 41 41 41z m-430 276c-23 0-41-18-41-41l0-154c0-22 18-41 41-41l430 0c23 0 41 19 41 41l0 154c0 23-18 41-41 41z"/>
<glyph glyph-name="chartgrid-2-2" unicode="&#117;" d="M236 41c0-23-19-41-41-41l-154 0c-23 0-41 18-41 41l0 430c0 23 18 41 41 41l154 0c22 0 41-18 41-41z m276 430c0 23-18 41-41 41l-154 0c-22 0-41-18-41-41l0-430c0-23 19-41 41-41l154 0c23 0 41 18 41 41z"/>
<glyph glyph-name="chartgrid-3-1" unicode="&#118;" d="M143 31c0-17-13-31-30-31l-82 0c-17 0-31 14-31 31l0 450c0 17 14 31 31 31l82 0c17 0 30-14 30-31z m185 450c0 17-14 31-31 31l-82 0c-17 0-31-14-31-31l0-450c0-17 14-31 31-31l82 0c17 0 31 14 31 31z m184 0c0 17-14 31-31 31l-82 0c-17 0-30-14-30-31l0-450c0-17 13-31 30-31l82 0c17 0 31 14 31 31z"/>
<glyph glyph-name="chartgrid-3-2" unicode="&#119;" d="M41 512c-23 0-41-18-41-41l0-154c0-22 18-41 41-41l430 0c23 0 41 19 41 41l0 154c0 23-18 41-41 41z m195-471c0-23-19-41-41-41l-154 0c-23 0-41 18-41 41l0 154c0 22 18 41 41 41l154 0c22 0 41-19 41-41z m276 0c0-23-18-41-41-41l-154 0c-22 0-41 18-41 41l0 154c0 22 19 41 41 41l154 0c23 0 41-19 41-41z"/>
<glyph glyph-name="chartgrid-3-3" unicode="&#120;" d="M471 0c23 0 41 18 41 41l0 154c0 22-18 41-41 41l-430 0c-23 0-41-19-41-41l0-154c0-23 18-41 41-41z m-235 317c0-22-19-41-41-41l-154 0c-23 0-41 19-41 41l0 154c0 23 18 41 41 41l154 0c22 0 41-18 41-41z m276 0c0-22-18-41-41-41l-154 0c-22 0-41 19-41 41l0 154c0 23 19 41 41 41l154 0c23 0 41-18 41-41z"/>
<glyph glyph-name="chartgrid-3-4" unicode="&#121;" d="M512 471c0 23-18 41-41 41l-154 0c-22 0-41-18-41-41l0-430c0-23 19-41 41-41l154 0c23 0 41 18 41 41z m-317-235c22 0 41-19 41-41l0-154c0-23-19-41-41-41l-154 0c-23 0-41 18-41 41l0 154c0 22 18 41 41 41z m0 276c22 0 41-18 41-41l0-154c0-22-19-41-41-41l-154 0c-23 0-41 19-41 41l0 154c0 23 18 41 41 41z"/>
<glyph glyph-name="chartgrid-3-5" unicode="&#122;" d="M0 41c0-23 18-41 41-41l154 0c22 0 41 18 41 41l0 430c0 23-19 41-41 41l-154 0c-23 0-41-18-41-41z m471 195c23 0 41-19 41-41l0-154c0-23-18-41-41-41l-154 0c-22 0-41 18-41 41l0 154c0 22 19 41 41 41z m0 276c23 0 41-18 41-41l0-154c0-22-18-41-41-41l-154 0c-22 0-41 19-41 41l0 154c0 23 19 41 41 41z"/>
<glyph glyph-name="chartgrid-4-1" unicode="&#65;" d="M471 236c23 0 41-19 41-41l0-154c0-23-18-41-41-41l-154 0c-22 0-41 18-41 41l0 154c0 22 19 41 41 41z m0 276c23 0 41-18 41-41l0-154c0-22-18-41-41-41l-154 0c-22 0-41 19-41 41l0 154c0 23 19 41 41 41z m-276-276c22 0 41-19 41-41l0-154c0-23-19-41-41-41l-154 0c-23 0-41 18-41 41l0 154c0 22 18 41 41 41z m0 276c22 0 41-18 41-41l0-154c0-22-19-41-41-41l-154 0c-23 0-41 19-41 41l0 154c0 23 18 41 41 41z"/>
<glyph glyph-name="chartgrid-4-2" unicode="&#66;" d="M471 0c23 0 41 18 41 41l0 154c0 22-18 41-41 41l-430 0c-23 0-41-19-41-41l0-154c0-23 18-41 41-41z m-328 317c0-22-18-41-41-41l-61 0c-23 0-41 19-41 41l0 154c0 23 18 41 41 41l61 0c23 0 41-18 41-41z m185 0c0-22-19-41-41-41l-62 0c-22 0-41 19-41 41l0 154c0 23 19 41 41 41l62 0c22 0 41-18 41-41z m184 0c0-22-18-41-41-41l-61 0c-23 0-41 19-41 41l0 154c0 23 18 41 41 41l61 0c23 0 41-18 41-41z"/>
<glyph glyph-name="chartgrid-4-3" unicode="&#67;" d="M41 512c-23 0-41-18-41-41l0-154c0-22 18-41 41-41l430 0c23 0 41 19 41 41l0 154c0 23-18 41-41 41z m102-471c0-23-18-41-41-41l-61 0c-23 0-41 18-41 41l0 154c0 22 18 41 41 41l61 0c23 0 41-19 41-41z m185 0c0-23-19-41-41-41l-62 0c-22 0-41 18-41 41l0 154c0 22 19 41 41 41l62 0c22 0 41-19 41-41z m184 0c0-23-18-41-41-41l-61 0c-23 0-41 18-41 41l0 154c0 22 18 41 41 41l61 0c23 0 41-19 41-41z"/>
<glyph glyph-name="chartgrid-4-4" unicode="&#68;" d="M0 41c0-23 18-41 41-41l154 0c22 0 41 18 41 41l0 430c0 23-19 41-41 41l-154 0c-23 0-41-18-41-41z m471 102c23 0 41-18 41-41l0-61c0-23-18-41-41-41l-154 0c-22 0-41 18-41 41l0 61c0 23 19 41 41 41z m0 185c23 0 41-19 41-41l0-62c0-22-18-41-41-41l-154 0c-22 0-41 19-41 41l0 62c0 22 19 41 41 41z m0 184c23 0 41-18 41-41l0-61c0-23-18-41-41-41l-154 0c-22 0-41 18-41 41l0 61c0 23 19 41 41 41z"/>
<glyph glyph-name="chartgrid-4-5" unicode="&#69;" d="M512 471c0 23-18 41-41 41l-154 0c-22 0-41-18-41-41l0-430c0-23 19-41 41-41l154 0c23 0 41 18 41 41z m-317-328c22 0 41-18 41-41l0-61c0-23-19-41-41-41l-154 0c-23 0-41 18-41 41l0 61c0 23 18 41 41 41z m0 185c22 0 41-19 41-41l0-62c0-22-19-41-41-41l-154 0c-23 0-41 19-41 41l0 62c0 22 18 41 41 41z m0 184c22 0 41-18 41-41l0-61c0-23-19-41-41-41l-154 0c-23 0-41 18-41 41l0 61c0 23 18 41 41 41z"/>
<glyph glyph-name="indicators" unicode="&#70;" d="M464 424c-27 0-48-21-48-48 0-8 2-15 5-22l-46-48c-7 4-15 6-24 6-26 0-47-22-47-49 0-11 4-22 11-30l-30-51c-8 2-16 2-24 0-4-1-8-2-11-4l-47 47c4 7 6 15 6 23 0 27-21 48-48 48-26 0-48-21-48-48 0-8 2-16 6-23l-47-47c-7 4-15 6-24 6-27 0-48-21-48-48 0-26 21-48 48-48 27 0 48 22 48 48 0 9-2 17-6 24l47 47c7-4 15-7 24-7 9 0 17 2 24 6l46-46c-6-11-8-23-5-36 7-26 33-41 59-35 25 7 41 33 34 59-2 8-6 15-12 21l30 50c5-2 10-3 16-3 26 1 47 22 47 49 0 8-2 16-7 23l46 47c7-4 16-7 25-7 27 0 48 22 48 48 0 27-21 48-48 48z m-416-320c-18 0-32 15-32 32 0 18 14 32 32 32 18 0 32-14 32-32 0-17-14-32-32-32z m113 112c-18 0-32 15-32 32 0 18 14 32 32 32 18 0 32-14 32-32 0-17-14-32-32-32z m120-111c-17-5-35 6-39 23-5 17 6 34 23 39 17 4 34-6 39-23 4-17-6-35-23-39z m71 127c-4 0-8 1-12 2l-8 5c-7 6-12 15-12 25 0 17 14 32 32 32 17 0 32-14 32-31 0-18-14-33-32-33z m112 112c-18 0-32 15-32 32 0 18 14 32 32 32 18 0 32-14 32-32 0-17-14-32-32-32z"/>
<glyph glyph-name="indicators-add" unicode="&#71;" d="M440 134c35 0 63-28 63-62 0-35-28-63-63-63-34 0-62 28-62 63 0 34 28 62 62 62m0 9c-39 0-71-32-71-71 0-40 32-72 71-72 40 0 72 32 72 72 0 39-32 71-72 71z m36-67l-32 0 0 32c0 2-1 3-4 3-2 0-4-1-4-3l0-32-31 0c-2 0-4-1-4-4 0-2 2-4 4-4l31 0 0-31c0-2 2-4 4-4 3 0 4 2 4 4l0 31 32 0c2 0 4 2 4 4 0 3-2 4-4 4z m-433-25l-34 0c-6 0-9-3-9-8 0-5 3-9 9-9l25 0 0-25c0-6 4-9 9-9 5 0 8 3 8 9l0 34c0 5-3 8-8 8z m43 0l-9 0c-6 0-9-3-9-8 0-5 4-9 9-9l9 0c6 0 9 4 9 9 0 5-4 8-9 8z m43 0l-9 0c-6 0-9-3-9-8 0-5 4-9 9-9l9 0c6 0 9 4 9 9 0 5-3 8-9 8z m44 0l-9 0c-6 0-9-3-9-8 0-5 4-9 9-9l9 0c6 0 9 4 9 9 0 5-3 8-9 8z m44 0l-9 0c-6 0-9-3-9-8 0-5 4-9 9-9l9 0c5 0 9 4 9 9 0 5-4 8-9 8z m43 0l-9 0c-6 0-9-3-9-8 0-5 4-9 9-9l9 0c6 0 9 4 9 9 0 5-3 8-9 8z m44 0l-9 0c-6 0-9-3-9-8 0-5 4-9 9-9l9 0c5 0 9 4 9 9 0 5-4 8-9 8z m43 0l-9 0c-6 0-9-3-9-8 0-5 4-9 9-9l9 0c6 0 9 4 9 9 0 5-3 8-9 8z m122 410l34 0c6 0 9 3 9 8 0 5-3 9-9 9l-25 0 0 25c0 6-4 9-9 9-5 0-8-3-8-9l0-34c0-5 3-8 8-8z m-426 51c-5 0-9-3-9-9l0-25-25 0c-6 0-9-4-9-9 0-5 3-8 9-8l34 0c5 0 8 3 8 8l0 34c0 6-3 9-8 9z m383-51l9 0c6 0 9 3 9 8 0 5-4 9-9 9l-9 0c-6 0-9-4-9-9 0-5 3-8 9-8z m-43 0l9 0c6 0 9 3 9 8 0 5-4 9-9 9l-9 0c-6 0-9-4-9-9 0-5 3-8 9-8z m-44 0l9 0c6 0 9 3 9 8 0 5-4 9-9 9l-9 0c-6 0-9-4-9-9 0-5 3-8 9-8z m-44 0l9 0c6 0 9 3 9 8 0 5-4 9-9 9l-9 0c-5 0-9-4-9-9 0-5 4-8 9-8z m-43 0l9 0c6 0 9 3 9 8 0 5-4 9-9 9l-9 0c-6 0-9-4-9-9 0-5 3-8 9-8z m-44 0l9 0c6 0 9 3 9 8 0 5-4 9-9 9l-9 0c-5 0-9-4-9-9 0-5 4-8 9-8z m-44 0l10 0c5 0 9 3 9 8 0 5-4 9-9 9l-10 0c-5 0-9-4-9-9 0-5 4-8 9-8z m-43 0l9 0c6 0 9 3 9 8 0 5-4 9-9 9l-9 0c-6 0-9-4-9-9 0-5 3-8 9-8z m-44 0l9 0c6 0 10 3 10 8 0 5-4 9-10 9l-9 0c-5 0-9-4-9-9 0-5 4-8 9-8z m-26 8l0 34c0 6-3 9-8 9-5 0-9-3-9-9l0-25-25 0c-6 0-9-4-9-9 0-5 3-8 9-8l34 0c5 0 8 3 8 8z m0-43l0 9c0 6-3 9-8 9-5 0-9-4-9-9l0-9c0-6 4-9 9-9 5 0 8 3 8 9z m0-43l0 9c0 6-3 9-8 9-5 0-9-4-9-9l0-9c0-6 4-9 9-9 5 0 8 3 8 9z m0-45l0 10c0 5-3 9-8 9-5 0-9-4-9-9l0-9c0-6 4-9 9-9 5 0 8 3 8 8z m0-43l0 9c0 6-3 9-8 9-5 0-9-4-9-9l0-9c0-5 4-9 9-9 5 0 8 4 8 9z m0-43l0 9c0 6-3 9-8 9-5 0-9-4-9-9l0-9c0-6 4-9 9-9 5 0 8 3 8 9z m0-44l0 9c0 5-3 9-8 9-5 0-9-4-9-9l0-9c0-5 4-9 9-9 5 0 8 4 8 9z m0-44l0 10c0 5-3 9-8 9-5 0-9-4-9-9l0-10c0-5 4-9 9-9 5 0 8 4 8 9z m0-43l0 9c0 6-3 9-8 9-5 0-9-4-9-9l0-9c0-6 4-9 9-9 5 0 8 3 8 9z m0-44l0 9c0 6-3 10-8 10-5 0-9-4-9-10l0-9c0-5 4-9 9-9 5 0 8 4 8 9z m410 97l0-10c0-5 3-9 8-9 5 0 9 4 9 9l0 9c0 6-4 9-9 9-5 0-8-3-8-8z m0 43l0-9c0-5 3-9 8-9 5 0 9 4 9 9l0 9c0 5-4 9-9 9-5 0-8-4-8-9z m0 44l0-10c0-5 3-9 8-9 5 0 9 4 9 9l0 9c0 6-4 9-9 9-5 0-8-3-8-8z m0 43l0-9c0-5 3-9 8-9 5 0 9 4 9 9l0 9c0 5-4 9-9 9-5 0-8-4-8-9z m0 44l0-10c0-5 3-9 8-9 5 0 9 4 9 9l0 9c0 6-4 9-9 9-5 0-8-3-8-8z m0 43l0-9c0-5 3-9 8-9 5 0 9 4 9 9l0 9c0 6-4 9-9 9-5 0-8-3-8-9z m0 44l0-9c0-6 3-10 8-10 5 0 9 4 9 10l0 9c0 5-4 9-9 9-5 0-8-4-8-9z m-22-61c-12 11-31 10-42-2-11-11-12-27-4-38l-35-36c-12 7-27 5-38-6-10-10-11-26-3-38l-35-36c-11 7-26 6-36-4l-42 31c2 5 3 10 3 16-2 8-6 15-13 20-6 3-11 6-18 6-9 0-19-4-25-12-4-6-6-13-5-19 0-6 2-11 5-16l-35-37c-12 7-28 6-38-5-11-12-11-31 1-43 11-11 31-11 42 2 10 11 12 27 4 38l35 37c6-4 14-5 20-4 1 0 1 0 2 0 5 1 10 4 14 8l42-31c-5-12-4-25 6-34 12-12 31-11 43 1 10 11 11 27 3 38l35 37c12-8 28-6 38 5 10 11 11 27 3 38l35 37c3-3 7-4 11-4 2-1 4-1 7-1 2 0 4 0 5 1 6 1 11 4 16 8 11 13 11 32-1 43z m-25 10c-20 0-36-16-36-37 0-6 1-11 4-16l-35-37c-6 3-12 5-18 5-21-1-37-17-36-37 0-9 3-17 8-23l-23-39c-6 1-12 2-18 0-3-1-6-2-9-4l-35 36c3 5 4 11 4 18 0 20-16 37-36 37-20 0-37-17-37-37 0-6 2-12 5-17l-36-36c-6 3-12 4-18 4-20 0-37-16-37-36 0-20 17-37 37-37 20 0 36 17 36 37 0 6-2 12-5 18l36 36c6-4 12-6 19-6 6 0 12 2 18 5l35-35c-5-8-6-18-4-28 5-19 25-31 45-26 19 5 31 25 26 45-2 6-5 11-9 16l22 38c4-2 8-2 13-2 20 0 36 17 36 37 0 6-2 12-5 18l34 35c6-3 12-5 19-5 21 0 37 16 37 36 0 21-16 37-37 37z m-316-244c-14 0-25 11-25 25 0 13 11 24 25 24 13 0 24-11 24-24 0-14-11-25-24-25z m86 86c-14 0-25 11-25 24 0 13 11 24 25 24 13 0 24-11 24-24 0-13-11-24-24-24z m91-85c-13-3-27 4-30 17-3 13 5 27 18 30 13 3 26-4 29-17 4-13-4-27-17-30z m54 97c-3 0-6 0-9 2l-6 3c-6 5-9 11-9 19 0 13 10 24 24 25 13 0 24-11 24-24 1-14-10-25-24-25z m85 85c-13 0-24 11-24 24 0 14 11 25 24 25 14 0 25-11 25-25 0-13-11-24-25-24z"/>
<glyph glyph-name="addnewasset" unicode="&#72;" d="M481 333l-148 0 0 148c0 17-14 31-31 31l-92 0c-17 0-31-14-31-31l0-148-148 0c-17 0-31-14-31-31l0-92c0-17 14-31 31-31l148 0 0-148c0-17 14-31 31-31l92 0c17 0 31 14 31 31l0 148 148 0c17 0 31 14 31 31l0 92c0 17-14 31-31 31z"/>
<glyph glyph-name="earningcalendar-1" unicode="&#74;" d="M353 471l0-31-71 0 0 31z m-123 0l-71 0 0-31 71 0z m282 0l0-297-174-174-338 0 0 471 108 0 0-31-77 0 0-71 450 0 0 71-77 0 0 31z m-74-328l-69 0 0-69z m43 195l-450 0 0-307 307 0 0 143 143 0z m-164-143l-122 0 0 122 122 0z m-30 92l-62 0 0-62 62 0z m-113-236l-123 0 0 123 123 0z m-31 92l-61 0 0-61 61 0z m318 52l-123 0 0 122 123 0z m-31 92l-61 0 0-62 61 0z m-113-236l-122 0 0 123 122 0z m-30 92l-62 0 0-61 62 0z m-113 52l-123 0 0 122 123 0z m-31 92l-61 0 0-62 61 0z m139 117c0-14-12-25-26-25-14 0-26 11-26 25 0 9 4 16 11 21 0 0 0 0 0 0l0 72c0 8 7 15 15 15 8 0 15-7 15-15l0-72c0 0 0 0 0 0 7-5 11-12 11-21z m-134 21c0 0 0 0 0 0l0 72c0 8-6 15-15 15-8 0-15-7-15-15l0-72c0 0 0 0 0 0-6-5-10-12-10-21 0-14 11-25 25-25 14 0 26 11 26 25 0 9-4 16-11 21z m246 0c0 0 0 0 0 0l0 72c0 8-7 15-15 15-9 0-15-7-15-15l0-72c0 0 0 0 0 0-7-5-11-12-11-21 0-14 12-25 26-25 14 0 25 11 25 25 0 9-4 16-10 21z"/>
<glyph glyph-name="help-1" unicode="&#75;" d="M461 348l-13 0c-15 93-95 164-192 164-97 0-177-71-192-164l-13 0c-28 0-51-23-51-51l0-164c0-28 23-51 51-51l11 0c5-35 35-62 71-62l67 0c2-11 12-20 24-20l64 0c13 0 24 11 24 25l0 22c0 14-11 25-24 25l-64 0c-12 0-22-9-24-21l-67 0c-21 0-38 16-40 35 17 8 30 26 30 47l0 164c0 20-12 38-29 46 12 78 80 138 162 138 82 0 150-60 162-138-17-8-29-26-29-46l0-164c0-28 23-51 51-51l21 0c28 0 51 23 51 51l0 164c0 28-23 51-51 51z m-369-215c0-11-9-20-20-20l-21 0c-11 0-20 9-20 20l0 164c0 11 9 20 20 20l21 0c11 0 20-9 20-20z m389 0c0-11-9-20-20-20l-21 0c-11 0-20 9-20 20l0 164c0 11 9 20 20 20l21 0c11 0 20-9 20-20z"/>
<glyph glyph-name="leaderboard-1" unicode="&#76;" d="M503 134l-68 69c18 30 29 66 29 104 0 113-92 205-205 205-113 0-205-92-205-205 0-37 10-71 27-101l-72-72c-9-8-11-22-7-33 5-12 16-19 29-19l51 0 0-51c0-13 7-24 19-29 4-1 8-2 12-2 8 0 15 3 21 9l96 95c9-1 19-2 29-2 8 0 16 1 24 2l95-95c6-6 13-9 21-9 4 0 8 1 12 2 12 5 19 16 19 29l0 51 51 0c13 0 24 7 29 19 4 11 2 25-7 33z m-390-103l0 82-82 0 67 67c25-31 58-55 97-67z m143 97c-99 0-179 80-179 179 0 99 80 179 179 179 99 0 179-80 179-179 0-99-80-179-179-179z m146-15l0-82-81 81c38 12 72 36 97 67l66-66z m-19 226c-4 11-15 20-27 21l-51 4-21 48c-5 11-16 19-28 19-12 0-23-8-28-19l-21-48-51-4c-12-1-23-10-27-21-3-12 0-25 9-33l39-34-11-51c-3-12 2-24 12-31 5-4 11-6 18-6 5 0 11 1 15 4l45 27 45-27c4-3 10-4 15-4 7 0 13 2 18 6 10 7 15 19 12 31l-11 51 39 34c9 8 12 21 9 33z m-82-56l15-68-60 35-60-35 15 68-52 46 69 7 28 64 28-64 69-7z"/>
<glyph glyph-name="marketnews-1" unicode="&#77;" d="M435 215l-256 0c-8 0-15-7-15-15 0-9 7-16 15-16l256 0c9 0 16 7 16 16 0 8-7 15-16 15z m0-61l-256 0c-8 0-15-7-15-16 0-8 7-15 15-15l256 0c9 0 16 7 16 15 0 9-7 16-16 16z m0-62l-256 0c-8 0-15-7-15-15 0-9 7-16 15-16l256 0c9 0 16 7 16 16 0 8-7 15-16 15z m-220 215l82 0c28 0 51 23 51 51l0 52c0 28-23 51-51 51l-82 0c-28 0-51-23-51-51l0-52c0-28 23-51 51-51z m-20 103c0 11 9 20 20 20l82 0c11 0 20-9 20-20l0-52c0-11-9-20-20-20l-82 0c-11 0-20 9-20 20z m240 51l-41 0c-8 0-15-7-15-16 0-8 7-15 15-15l41 0c9 0 16 7 16 15 0 9-7 16-16 16z m0-185l-256 0c-8 0-15-6-15-15 0-8 7-15 15-15l256 0c9 0 16 7 16 15 0 9-7 15-16 15z m26 236l-307 0c-29 0-52-23-52-51l0-51-35 0c-37 0-67-30-67-67l0-276c0-37 30-67 67-67 18 0 394 0 394 0 28 0 51 23 51 51l0 410c0 28-23 51-51 51z m-359-169l0-276c0-20-16-36-35-36-20 0-36 16-36 36l0 276c0 20 16 36 36 36l35 0z m379-292c0-11-9-20-20-20l-328 0 0 430c0 11 9 20 21 20l307 0c11 0 20-9 20-20z m-46 287l-41 0c-8 0-15-7-15-15 0-9 7-16 15-16l41 0c9 0 16 7 16 16 0 8-7 15-16 15z m0 61l-41 0c-8 0-15-7-15-15 0-8 7-15 15-15l41 0c9 0 16 7 16 15 0 8-7 15-16 15z"/>
<glyph glyph-name="menu-1" unicode="&#78;" d="M72 369l368 0c40 0 72 32 72 71 0 40-32 72-72 72l-368 0c-40 0-72-32-72-72 0-39 32-71 72-71z m0 112l368 0c23 0 41-18 41-41 0-22-18-41-41-41l-368 0c-23 0-41 19-41 41 0 23 18 41 41 41z m368-338l-368 0c-40 0-72-32-72-71 0-40 32-72 72-72l368 0c40 0 72 32 72 72 0 39-32 71-72 71z m0-112l-368 0c-23 0-41 18-41 41 0 22 18 41 41 41l368 0c23 0 41-19 41-41 0-23-18-41-41-41z m0 297l-368 0c-40 0-72-32-72-72 0-40 32-72 72-72l368 0c40 0 72 32 72 72 0 40-32 72-72 72z m0-113l-368 0c-23 0-41 18-41 41 0 23 18 41 41 41l368 0c23 0 41-18 41-41 0-23-18-41-41-41z"/>
<glyph glyph-name="publicchats-1" unicode="&#79;" d="M328 332c0-29-23-51-52-51-28 0-51 22-51 51 0 28 23 51 51 51 29 0 52-23 52-51z m-174 51c-29 0-52-23-52-51 0-29 23-51 52-51 28 0 51 22 51 51 0 28-23 51-51 51z m358 78l0-246c0-28-23-51-51-51l-24 0 0-75c0-12-7-23-18-28-4-2-9-3-13-3-7 0-14 2-19 7l-27 21c-9-13-25-23-43-23l-123 0-81-57c-6-4-12-6-18-6-5 0-10 1-14 3-10 6-17 16-17 28l0 32-13 0c-28 0-51 23-51 52l0 164c0 24 18 45 41 50l0 132c0 28 23 51 51 51l369 0c28 0 51-23 51-51z m-176-355l-70 58-174 0c-28 0-51 23-51 51l0 81c-6-3-10-10-10-17l0-164c0-12 9-21 20-21l44 0 0-63 89 63 133 0c9 0 16 5 19 12z m145 355c0 11-9 20-20 20l-369 0c-11 0-20-9-20-20l0-246c0-11 9-20 20-20l184 0 130-106 0 106 55 0c11 0 20 9 20 20z m-82-78c-28 0-51-23-51-51 0-29 23-51 51-51 29 0 52 22 52 51 0 28-23 51-52 51z"/>
<glyph glyph-name="tournaments-1" unicode="&#80;" d="M75 437l46 0 0-94c-25 0-46 21-46 47z m437 24l0-71c0-63-47-115-108-122-17-37-47-66-85-82 25-2 45-23 45-48 0 0 0-11 0-11 17-8 29-25 29-45l0-33c0-27-22-49-49-49l-176 0c-27 0-49 22-49 49l0 34c0 19 12 36 29 44l0 11c0 25 20 46 45 48-38 16-68 45-85 82-61 7-108 59-108 122l0 71c0 28 23 51 51 51l410 0c27 0 50-22 51-49 0-1 0-2 0-2z m-168-358l-176 1c-12 0-21-10-21-21l0-34c0-12 9-22 21-22l176 0c12 0 21 10 21 22l0 33c0 12-9 21-21 21z m141 358l0 0c-1 13-11 24-24 24l-410 0c-13 0-24-11-24-24l0-71c1-53 43-95 95-95l5 0c14-44 50-78 94-90l0-46-24 0c-12 0-21-10-21-21l0-11 160 0 0 10c0 0 0 0 0 1 0 11-9 21-21 20l-25 0 0 47c45 12 81 46 95 90l5 0c52 0 94 42 95 95l0 71z m-94-118c25 0 46 21 46 47l0 47-46 0z m-38 37c4-12 0-26-9-34l-24-19 8-29c3-12-2-25-12-33-5-4-12-6-18-6-6 0-11 2-17 5l-25 17-25-17c-6-3-11-5-17-5-6 0-13 2-18 6-10 8-15 21-12 33l8 29-24 19c-9 8-13 22-9 34 4 12 14 20 27 21l30 2 11 28c5 12 16 20 29 20 13 0 24-8 29-20l11-28 30-2c13-1 23-9 27-21z m-29-10l-50 3-18 47-18-47-50-3 39-31-13-49 42 27 42-27-13 49z"/>
<glyph glyph-name="tradinghistory-1" unicode="&#81;" d="M256 430c17 0 31-14 31-31l0-102c4-3 7-6 10-10l61 0c17 0 31-14 31-31 0-17-14-31-31-31l-61 0c-9-12-24-20-41-20-28 0-51 23-51 51 0 17 8 32 20 41l0 102c0 17 14 31 31 31z m256-174c0-141-115-256-256-256-141 0-256 115-256 256 0 141 115 256 256 256 141 0 256-115 256-256z m-32-20l-29 0c-12 0-21 9-21 20 0 11 9 20 21 20l29 0c-2 27-9 52-19 74l-26-14c-10-6-23-3-28 7-6 10-3 22 7 28l26 15c-15 21-33 39-54 54l-15-26c-6-10-18-13-28-7-10 5-13 18-7 28l14 26c-22 10-47 17-74 19l0-29c0-12-9-21-20-21-11 0-20 9-20 21l0 29c-27-2-52-9-74-19l14-26c6-10 3-23-7-28-10-6-22-3-28 7l-15 26c-21-15-39-33-54-54l26-15c10-6 13-18 7-28-5-10-18-13-28-7l-26 14c-10-22-17-47-19-74l29 0c12 0 21-9 21-20 0-11-9-20-21-20l-29 0c2-27 9-52 19-74l26 14c10 6 23 3 28-7 6-10 3-22-7-28l-26-15c15-21 33-39 54-54l15 26c6 10 18 13 28 7 10-5 13-18 7-28l-14-26c22-10 47-17 74-19l0 29c0 12 9 21 20 21 11 0 20-9 20-21l0-29c27 2 52 9 74 19l-14 26c-6 10-3 23 7 28 10 6 22 3 28-7l15-26c21 15 39 33 54 54l-26 15c-10 6-13 18-7 28 5 10 18 13 28 7l26-14c10 22 17 47 19 74z"/>
<glyph glyph-name="videotutorials" unicode="&#82;" d="M461 461l-410 0c-28 0-51-23-51-51l0-308c0-28 23-51 51-51l410 0c28 0 51 23 51 51l0 308c0 28-23 51-51 51z m20-359c0-11-9-20-20-20l-410 0c-11 0-20 9-20 20l0 308c0 11 9 20 20 20l410 0c11 0 20-9 20-20z m-162 181l-96 53c-5 3-10 4-15 4-6 0-11-1-16-4-9-6-15-16-15-27l0-106c0-11 6-21 15-27 5-3 10-4 16-4 5 0 10 1 15 4l96 53c10 6 16 16 16 27 0 11-6 21-16 27z m-111-80l0 106 96-53z"/>
<glyph glyph-name="openoption-1" unicode="&#83;" d="M420 481l0-307 38 0-69-114-69 114 38 0 0 307 62 0m-297-29l69-114-38 0 0-307-62 0 0 307-38 0 69 114m328 60l-123 0 0-307-62 0 123-205 123 205-61 0z m-328 0l-123-205 61 0 0-307 123 0 0 307 62 0z"/>
<glyph glyph-name="deposit" unicode="&#73;" d="M430 143c32 39 51 89 51 144 0 124-101 225-225 225-124 0-225-101-225-225 0-55 19-105 51-144z m-151 34c0-9-7-15-15-15l-16 0c-8 0-15 6-15 15l0 17c-18 2-35 7-44 12-4 2-5 6-4 10l8 34c1 3 2 5 5 6 1 1 2 1 4 1 1 0 3 0 4-1 5-2 22-10 41-10 8 0 20 1 20 10 0 5-1 10-24 18-37 13-56 34-56 62 0 28 18 50 46 59l0 22c0 9 7 15 15 15l16 0c8 0 15-6 15-15l0-18c13-1 25-4 36-9 4-2 6-6 5-11l-9-33c-1-2-3-5-5-6-1 0-3-1-4-1-1 0-3 1-4 1-10 6-22 8-34 8-10 0-18-3-18-8 0-6 7-9 28-18 37-13 54-33 54-63 0-23-14-50-49-61z m-23 315c113 0 205-92 205-205 0-45-15-88-41-123l-123 0c1 4 2 8 2 13l0 7c36 17 49 49 49 75 0 27-10 48-31 64 6 4 11 10 14 18l9 33c4 14-3 29-17 35-7 3-15 6-24 8l0 0c0 20-16 36-35 36l-16 0c-19 0-35-16-35-36l0-8c-29-14-47-41-47-73 0-18 6-40 29-59-2-1-4-1-6-2-8-4-14-11-16-20l-8-34c-3-13 2-26 14-33 9-5 21-9 34-11 0-5 1-9 2-13l-123 0c-26 35-41 78-41 123 0 113 92 205 205 205z m256-342l0-150-512 0 0 150c0 20 11 37 27 47 10-24 23-47 39-67l7-7 366 0 7 7c16 20 29 43 39 67 16-10 27-27 27-47z"/>
<glyph glyph-name="ask" unicode="&#84;" d="M256 250c102 0 184 49 184 110 0 61-82 111-184 111-102 0-184-50-184-111 0-61 82-110 184-110z m51 160l25 0 0-35 0 0c2 3 5 6 7 9l25 26 30 0-36-34 38-45-29 0-26 34-9-8 0-26-25 0z m-59-46c-18 5-29 12-29 24 0 13 15 24 40 24 12 0 21-2 28-4l-6-15c-4 2-12 4-22 4-11 0-16-4-16-8 0-5 6-7 20-11 19-5 28-13 28-24 0-13-14-25-43-25-13 0-25 3-31 5l5 15c7-2 17-5 27-5 11 0 17 4 17 9 0 5-5 8-18 11z m-106 46l32 0 33-79-26 0-9 20-30 0-8-20-25 0z m370-226c0-79-115-143-256-143-141 0-256 64-256 143 0 33 20 63 53 88-21-20-33-43-33-67 0-73 106-132 236-132 130 0 236 59 236 132 0 24-12 47-33 67 33-25 53-55 53-88z m-456 52c0 0 0 103 0 103 0 0 0 1 0 1 1-66 90-120 200-120 110 0 199 54 200 120 0 0 0-1 0-1 0 0 0-103 0-103 0-67-90-121-200-121-110 0-200 54-200 121z m113 129l-24 0 7 16c1 5 3 11 5 16l0 0c1-5 3-11 5-16z"/>
<glyph glyph-name="bid" unicode="&#85;" d="M175 344c-4 0-6 0-9 0l0 22 8 0c12 0 21-3 21-11 0-8-9-11-20-11z m18 44c0 6-6 9-17 9-5 0-8 0-10 0l0-19 8 0c12 0 19 4 19 10z m63-273c110 0 200 54 200 121 0 0 0 103 0 103 0 0 0 1 0 1-1-66-90-120-200-120-110 0-199 54-200 120 0 0 0-1 0-1 0 0 0-103 0-103 0-67 90-121 200-121z m-184 245c0 61 82 111 184 111 102 0 184-50 184-111 0-61-82-110-184-110-102 0-184 49-184 110z m206-28c6-1 14-2 26-2 20 0 37 4 48 10 10 7 17 17 17 32 0 14-7 24-18 30-10 5-22 8-42 8-11 0-22 0-31-2z m-43-1l23 0 0 79-23 0z m-92 1c6-1 14-2 25-2 21 0 33 3 41 7 6 4 10 10 10 17 0 10-8 17-20 19l0 1c11 3 17 9 17 16 0 7-5 13-13 16-7 3-16 4-30 4-11 0-24-1-30-2z m316-60c21-20 33-43 33-67 0-73-106-132-236-132-130 0-236 59-236 132 0 24 12 47 33 67-33-25-53-55-53-88 0-79 115-143 256-143 141 0 256 64 256 143 0 33-20 63-53 88z m-149 72c21 0 34 9 34 28 0 16-12 24-32 24-5 0-9 0-11 0l0-51c2-1 6-1 8-1 1 0 1 0 1 0z"/>
<glyph glyph-name="symbol" unicode="&#86;" d="M155 374l6-15c2-5 7-7 12-6l15 3c5-6 10-12 17-17l-4-15c-1-5 2-10 6-12l16-6c4-2 10 0 12 4l8 13c9-1 17-1 25 0l8-13c3-4 8-6 12-4l16 6c4 2 7 7 6 11l-4 16c7 4 13 10 18 17l15-4c5-1 10 2 12 6l6 16c2 4 0 10-4 12l-13 8c1 9 1 17 0 25l13 8c4 2 6 8 4 12l-6 16c-2 4-7 7-12 6l-15-4c-5 7-10 13-17 18l4 15c1 4-2 10-6 11l-16 7c-4 2-10 0-12-4l-8-13c-9 1-17 1-25 0l-8 13c-3 4-8 6-12 4l-16-6c-4-2-7-7-6-12l4-15c-7-5-13-11-18-17l-15 3c-5 2-10-1-12-5l-6-16c-2-4 0-10 4-12l13-9c-1-8-1-16 0-24l-13-8c-4-3-6-8-4-13z m42 57c14 33 51 48 84 35 32-14 47-51 34-84-14-32-51-47-84-34-32 14-47 51-34 83z m38-75c28-12 60 1 72 30 12 28-2 60-30 72-28 11-60-2-72-30-12-28 2-60 30-72z m34 41c-1 1-5 3-9 4l-7 2c-9 1-15 4-19 8-3 3-6 8-6 14 0 6 3 12 7 15 5 4 10 7 19 7l0 6 7 0 0-6c8-1 16-4 23-9l-7-10c-3 2-7 4-10 5-3 1-6 1-9 1l-3 0c-1 1-3 0-4 0-3 0-4 0-6-2-2-1-3-4-3-6 0-2 1-4 3-5 2-1 5-3 9-4l7-3c9-2 15-5 19-8 4-3 6-9 6-15 0-7-2-12-7-16-5-4-11-7-18-7l0-7-7 0 0 7c-11 2-20 6-28 13l8 10c1-1 3-3 4-4 6-4 13-6 20-6 2 0 4 0 6 0 2 1 4 2 4 3 3 2 3 4 3 7 0 2 0 4-2 6z m-124-102c-22 22-56 22-78 0-21-22-21-56 0-78 22-22 57-22 78 0 22 22 22 56 0 78z m-27-34l0-10-19 0 0-20 33 0 0-12-55 0 0 12 9 0 0 20-9 0 0 10 9 0 0 14c0 9 2 16 7 20 4 4 10 6 17 6 10 0 17-4 22-12l-9-8c-3 5-7 8-11 8-4 0-7-1-9-3-2-2-4-5-4-10l0-15z m249 34c-22-22-22-56 0-78 22-22 56-22 78 0 21 22 21 56 0 78-22 22-56 22-78 0z m51-25l0-11-30 0c0 0 0-2 0-4 0-2 1-4 1-5l29 0 0-10-26 0c4-8 10-12 18-12 4 0 8 1 11 2 3 2 6 4 9 8l8-10c-6-9-16-13-27-13-8 0-15 2-21 7-6 5-11 11-13 19l-12 0 0 10 10 0c-1 2-1 3-1 5 0 2 0 3 0 4l-10 0 0 10 12 0c3 8 8 14 14 19 6 5 13 8 21 8 12 0 22-4 29-13l-8-10c-4 3-7 6-10 7-3 1-7 2-11 2-4 0-8-1-12-3-4-3-6-6-8-10l27 0z m94-6c0 5-4 10-8 10l-16 3c-2 8-5 15-9 22l9 13c3 4 2 10-1 13l-12 12c-3 3-9 4-13 1l-13-9c-7 4-14 7-22 9l-3 16c0 4-5 8-10 8l-17 0c-4 0-9-4-9-8l-3-16c-8-2-15-5-23-9l-12 9c-4 3-10 2-13-1l-12-12c-3-3-4-9-1-13l9-13c-4-7-7-14-9-22l-16-3c-4 0-8-5-8-10l0-16c0-5 4-10 8-10l16-3c2-8 5-15 9-22l-9-13c-3-4-2-10 1-13l12-12c3-3 9-4 13-1l12 9c8-4 15-7 23-9l3-16c0-4 5-8 9-8l17 0c5 0 10 4 10 8l3 16c8 2 15 5 22 9l13-9c4-3 10-2 13 1l12 12c3 3 4 9 1 13l-9 13c4 7 7 14 9 22l16 3c4 0 8 5 8 10z m-61-53c-25-25-65-25-90 0-25 25-25 65 0 90 25 25 65 25 90 0 25-25 25-65 0-90z m-94-73l-6 15c-2 5-7 7-12 6l-15-3c-5 6-10 12-17 17l4 15c1 5-2 10-6 12l-16 6c-4 2-10 0-12-4l-8-13c-9 1-17 1-25 0l-8 13c-3 4-8 6-12 4l-16-6c-4-2-7-7-6-11l4-16c-7-4-13-10-18-17l-15 4c-5 1-10-2-12-6l-6-16c-2-4 0-10 4-12l13-8c-1-9-1-17 0-25l-13-8c-4-2-6-8-4-12l6-16c2-4 7-7 12-6l15 4c5-7 10-13 17-18l-4-15c-1-4 2-10 6-11l16-7c4-2 10 0 12 4l8 13c9-1 17-1 25 0l8-13c3-4 8-6 12-4l16 6c4 2 7 7 6 12l-4 15c7 5 13 11 18 17l15-3c5-2 10 1 12 5l6 16c2 4 0 10-4 12l-13 9c1 8 1 16 0 24l13 8c4 3 6 8 4 13z m-42-57c-14-33-51-48-84-35-32 14-47 51-34 84 14 32 51 47 84 34 32-14 47-51 34-83z m-38 75c-28 12-60-1-72-30-12-28 2-60 30-72 28-11 60 2 72 30 12 28-2 60-30 72z m7-54l0-9-19 0-1-1 0-6 20 0 0-9-20 0 0-13-13 0 0 13-20 0 0 9 20 0 0 7-20 0 0 9 14 0-22 37 15 0 19-35 1 0 21 35 14 0-23-37 14 0z m-109 73l12 12c3 3 4 9 1 13l-9 13c4 7 7 14 9 22l16 3c4 0 8 5 8 10l0 16c0 5-4 10-8 10l-16 3c-2 8-5 15-9 22l9 13c3 4 2 10-1 13l-12 12c-3 3-9 4-13 1l-12-9c-8 4-15 7-23 9l-3 16c0 4-5 8-9 8l-17 0c-5 0-10-4-10-8l-3-16c-8-2-15-5-22-9l-13 9c-4 3-10 2-13-1l-12-12c-3-3-4-9-1-13l9-13c-4-7-7-14-9-22l-16-3c-4 0-8-5-8-10l0-16c0-5 4-10 8-10l16-3c2-8 5-15 9-22l-9-13c-3-4-2-10 1-13l12-12c3-3 9-4 13-1l13 9c7-4 14-7 22-9l3-16c0-4 5-8 10-8l17 0c4 0 9 4 9 8l3 16c8 2 15 5 23 9l12-9c4-3 10-2 13 1z m-114 36c-25 25-25 65 0 90 25 25 65 25 90 0 25-25 25-65 0-90-25-25-65-25-90 0z"/>
<glyph glyph-name="ask-1" unicode="&#87;" d="M256 512c-141 0-256-115-256-256 0-141 115-256 256-256 141 0 256 115 256 256 0 141-115 256-256 256z m0-481c-124 0-225 101-225 225 0 124 101 225 225 225 124 0 225-101 225-225 0-124-101-225-225-225z m-103 241l8-25-27 0 7 25c2 7 4 16 6 23l0 0c2-7 4-16 6-23z m103 179c-107 0-195-88-195-195 0-107 88-195 195-195 107 0 195 88 195 195 0 107-88 195-195 195z m-82-255l-9 31-35 0-9-31-29 0 38 119 36 0 38-119z m77-1c-14 0-28 3-35 7l6 22c7-4 19-7 30-7 13 0 20 5 20 13 0 7-6 11-21 16-20 7-33 18-33 36 0 20 17 35 46 35 14 0 24-2 31-6l-6-21c-5 2-13 5-25 5-12 0-18-5-18-11 0-8 7-11 22-17 22-8 32-19 32-35 0-20-15-37-49-37z m136 1l-30 52-10-13 0-39-28 0 0 119 28 0 0-52 0 0c3 4 6 9 9 13l28 39 34 0-41-50 43-69z"/>
<glyph glyph-name="bid-1" unicode="&#88;" d="M182 230c0-14-11-19-25-19-5 0-8 0-11 1l0 37 10 0c15 0 26-6 26-19z m-3 56c0 10-7 15-21 15-6 0-10 0-12-1l0-30 10 0c15 0 23 6 23 16z m152 14c-6 0-11-1-13-1l0-86c2-1 6-1 10-1 27 0 44 15 44 46 0 28-15 42-41 42z m120-44c0-107-88-195-195-195-107 0-195 88-195 195 0 107 88 195 195 195 107 0 195-88 195-195z m-238-27c0 17-11 28-26 32l0 1c15 5 22 16 22 28 0 12-7 21-16 25-9 6-20 8-38 8-15 0-31-1-38-3l0-129c6-1 17-2 32-2 25 0 41 4 51 12 8 7 13 16 13 28z m50 93l-30 0 0-132 30 0z m140-63c0 24-8 40-22 50-12 9-28 14-53 14-15 0-29-1-40-3l0-129c8-1 19-2 34-2 25 0 46 6 60 17 12 11 21 28 21 53z m109-3c0-141-115-256-256-256-141 0-256 115-256 256 0 141 115 256 256 256 141 0 256-115 256-256z m-31 0c0 124-101 225-225 225-124 0-225-101-225-225 0-124 101-225 225-225 124 0 225 101 225 225z"/>
</font>
</defs>
</svg>
